<?xml version="1.0" encoding="UTF-8"?>
<svg id="OBJECT" xmlns="http://www.w3.org/2000/svg" viewBox="0 0 126.54 98.53">
  <defs>
    <style>
      .cls-1 {
        fill: #2c5da3;
      }

      .cls-2 {
        fill: #4e75cc;
      }

      .cls-3 {
        fill: none;
        stroke: #2c5da3;
        stroke-linecap: round;
        stroke-linejoin: round;
        stroke-width: .84px;
      }

      .cls-4 {
        fill: #6891d8;
      }
    </style>
  </defs>
  <g>
    <g>
      <path class="cls-4" d="m100.48,67.31c4.14-.84,6.77-2.53,7.85-5.03,1.86-4.32-1.08-10.66-2.37-12.74-.47-.75-.47-1.7,0-2.45,1.29-2.08,4.23-8.42,2.37-12.74-1.08-2.49-3.71-4.18-7.85-5.02-5.08-1.03-10.8,2.11-16.2,6.89,0,0,0,0,0,0-.17.15-.34.3-.51.46-7.33,6.64-14,16.16-17.62,22.13-.39.63-.74,1.23-1.05,1.78-.63,1.11-2.04,1.5-3.14.86-.74-.42-1.17-1.2-1.17-2.01,0-.39.1-.78.3-1.14.11-.2.57-.98,1.3-2.19.37-.6.81-1.3,1.32-2.1,6.25-9.74,22.56-32.3,37.69-29.22,1.37.28,2.61.63,3.75,1.08,3.63,1.4,6.12,3.63,7.41,6.65,2.55,5.93-.54,12.98-2.01,15.78,1.48,2.8,4.56,9.85,2.01,15.78-1.7,3.96-5.46,6.56-11.16,7.73-8.85,1.8-17.93-3.99-26.27-14.13-.02-.02-.03-.04-.05-.07-.75-.99-.6-2.39.37-3.18.99-.81,2.43-.67,3.25.32.15.19.31.37.47.56h0c5.03,5.95,12.67,13.75,21.31,11.99Z"/>
      <path class="cls-2" d="m105.85,55.83c2.54-3.23,4.07-6.37,4.14-6.5.3-.63.3-1.37,0-2-.05-.1-.85-1.77-2.27-3.91-.47-.71-1-1.47-1.6-2.25-.09-.11-.18-.23-.27-.34-3.63-4.61-7.45-7.05-11.34-7.24-3.79-.19-7.26,1.18-10.03,3.95-2.96,2.98-4.44,6.88-4.44,10.79s1.48,7.81,4.44,10.78c2.76,2.78,6.23,4.14,10.03,3.96,3.9-.2,7.71-2.63,11.34-7.24Zm-18.1.03c-4.14-4.16-4.14-10.91,0-15.07,1.07-1.07,2.22-1.81,3.49-2.21.94-.31,1.96-.44,3.04-.39,4.68.23,9.14,6.67,11.03,10.14-1.9,3.46-6.35,9.9-11.03,10.14-2.53.12-4.66-.72-6.53-2.6Z"/>
      <path class="cls-1" d="m94.28,38.19c-1.08-.06-2.1.08-3.04.39,1.57-.94,3.36-1.51,5.09-.9,4.61,1.63,4.08,3.56,7.13,4.34,1.32.34,2.15-.17,2.66-.84.6.78,1.13,1.54,1.6,2.25-.34.98-2.41,4.91-2.41,4.91-1.9-3.46-6.35-9.9-11.03-10.14Z"/>
      <path class="cls-2" d="m109.99,49.33l-2.54-.94.28-4.96s5.33-6.76-.37-15.3c-.59-.88-1.33-1.61-2.2-2.22,3.63,1.4,6.12,3.63,7.41,6.65,2.55,5.93-.54,12.98-2.01,15.78l-.57,1Z"/>
      <path class="cls-2" d="m61.95,61.47c-.74-.42-1.17-1.2-1.17-2.01,0-.39.1-.78.3-1.14.11-.2.57-.98,1.3-2.19.37-.6.81-1.3,1.32-2.1,1.01.14,2.52.03,4.14-1.25,2.83-2.24,6.12-10.13,16.42-16.56-.17.15-.34.3-.51.46-7.33,6.64-14,16.16-17.62,22.13-.39.63-.74,1.23-1.05,1.78-.63,1.11-2.04,1.5-3.14.86Z"/>
    </g>
    <g>
      <g>
        <path class="cls-4" d="m76.75,13.06c-.84-4.14-2.53-6.77-5.03-7.85-4.32-1.86-10.66,1.08-12.74,2.37-.75.47-1.7.47-2.45,0-2.08-1.29-8.42-4.23-12.74-2.37-2.49,1.08-4.18,3.71-5.02,7.85-1.03,5.08,2.11,10.8,6.89,16.2,0,0,0,0,0,0,.15.17.3.34.46.51,6.64,7.33,16.16,14,22.13,17.62.63.39,1.23.74,1.78,1.05,1.11.63,1.5,2.04.86,3.14-.42.74-1.2,1.17-2.01,1.17-.39,0-.78-.1-1.14-.3-.2-.11-.98-.57-2.19-1.3-.6-.37-1.3-.81-2.1-1.32-9.74-6.25-32.3-22.56-29.22-37.69.28-1.37.63-2.61,1.08-3.75,1.4-3.63,3.63-6.12,6.65-7.41,5.93-2.55,12.98.54,15.78,2.01,2.8-1.48,9.85-4.56,15.78-2.01,3.96,1.7,6.56,5.46,7.73,11.16,1.8,8.85-3.99,17.93-14.13,26.27-.02.02-.04.03-.07.05-.99.75-2.39.6-3.18-.37-.81-.99-.67-2.43.32-3.25.19-.15.37-.31.56-.47h0c5.94-5.03,13.74-12.67,11.98-21.31Z"/>
        <path class="cls-2" d="m65.26,7.69c-3.23-2.54-6.37-4.07-6.5-4.14-.63-.3-1.37-.3-2,0-.1.05-1.77.86-3.91,2.27-.71.47-1.47,1-2.25,1.6-.11.09-.23.18-.34.27-4.61,3.63-7.05,7.45-7.24,11.34-.19,3.79,1.18,7.26,3.95,10.03,2.98,2.96,6.88,4.44,10.79,4.44s7.81-1.48,10.78-4.44c2.78-2.76,4.14-6.23,3.96-10.03-.2-3.9-2.63-7.71-7.24-11.34Zm.03,18.1c-4.16,4.14-10.91,4.14-15.07,0-1.07-1.07-1.81-2.22-2.21-3.49-.31-.94-.44-1.96-.39-3.04.23-4.68,6.67-9.14,10.14-11.03,3.46,1.9,9.9,6.35,10.14,11.03.12,2.53-.72,4.66-2.6,6.53Z"/>
        <path class="cls-1" d="m47.62,19.26c-.06,1.08.08,2.1.39,3.04-.94-1.57-1.51-3.36-.9-5.09,1.63-4.61,3.56-4.08,4.34-7.13.34-1.32-.17-2.15-.84-2.66.78-.6,1.54-1.13,2.25-1.6.98.34,4.91,2.41,4.91,2.41-3.46,1.9-9.9,6.35-10.14,11.03Z"/>
        <path class="cls-2" d="m58.76,3.55l-.94,2.54-4.96-.28s-6.76-5.33-15.3.37c-.88.59-1.61,1.33-2.22,2.2,1.4-3.63,3.63-6.12,6.65-7.41,5.93-2.55,12.98.54,15.78,2.01l1,.57Z"/>
        <path class="cls-2" d="m70.9,51.59c-.42.74-1.2,1.17-2.01,1.17-.39,0-.78-.1-1.14-.3-.2-.11-.98-.57-2.19-1.3-.6-.37-1.3-.81-2.1-1.32.14-1.01.03-2.52-1.25-4.14-2.24-2.83-10.13-6.12-16.56-16.42.15.17.3.34.46.51,6.64,7.33,16.16,14,22.13,17.62.63.39,1.23.74,1.78,1.05,1.11.63,1.5,2.04.86,3.14Z"/>
      </g>
      <g>
        <path class="cls-4" d="m76.75,13.06c-.84-4.14-2.53-6.77-5.03-7.85-4.32-1.86-10.66,1.08-12.74,2.37-.75.47-1.7.47-2.45,0-2.08-1.29-8.42-4.23-12.74-2.37-2.49,1.08-4.18,3.71-5.02,7.85-1.03,5.08,2.11,10.8,6.89,16.2,0,0,0,0,0,0,.15.17.3.34.46.51,6.64,7.33,16.16,14,22.13,17.62.63.39,1.23.74,1.78,1.05,1.11.63,1.5,2.04.86,3.14-.42.74-1.2,1.17-2.01,1.17-.39,0-.78-.1-1.14-.3-.2-.11-.98-.57-2.19-1.3-.6-.37-1.3-.81-2.1-1.32-9.74-6.25-32.3-22.56-29.22-37.69.28-1.37.63-2.61,1.08-3.75,1.4-3.63,3.63-6.12,6.65-7.41,5.93-2.55,12.98.54,15.78,2.01,2.8-1.48,9.85-4.56,15.78-2.01,3.96,1.7,6.56,5.46,7.73,11.16,1.8,8.85-3.99,17.93-14.13,26.27-.02.02-.04.03-.07.05-.99.75-2.39.6-3.18-.37-.81-.99-.67-2.43.32-3.25.19-.15.37-.31.56-.47h0c5.94-5.03,13.74-12.67,11.98-21.31Z"/>
        <path class="cls-2" d="m65.26,7.69c-3.23-2.54-6.37-4.07-6.5-4.14-.63-.3-1.37-.3-2,0-.1.05-1.77.86-3.91,2.27-.71.47-1.47,1-2.25,1.6-.11.09-.23.18-.34.27-4.61,3.63-7.05,7.45-7.24,11.34-.19,3.79,1.18,7.26,3.95,10.03,2.98,2.96,6.88,4.44,10.79,4.44s7.81-1.48,10.78-4.44c2.78-2.76,4.14-6.23,3.96-10.03-.2-3.9-2.63-7.71-7.24-11.34Zm.03,18.1c-4.16,4.14-10.91,4.14-15.07,0-1.07-1.07-1.81-2.22-2.21-3.49-.31-.94-.44-1.96-.39-3.04.23-4.68,6.67-9.14,10.14-11.03,3.46,1.9,9.9,6.35,10.14,11.03.12,2.53-.72,4.66-2.6,6.53Z"/>
        <path class="cls-1" d="m47.62,19.26c-.06,1.08.08,2.1.39,3.04-.94-1.57-1.51-3.36-.9-5.09,1.63-4.61,3.56-4.08,4.34-7.13.34-1.32-.17-2.15-.84-2.66.78-.6,1.54-1.13,2.25-1.6.98.34,4.91,2.41,4.91,2.41-3.46,1.9-9.9,6.35-10.14,11.03Z"/>
        <path class="cls-2" d="m58.76,3.55l-.94,2.54-4.96-.28s-6.76-5.33-15.3.37c-.88.59-1.61,1.33-2.22,2.2,1.4-3.63,3.63-6.12,6.65-7.41,5.93-2.55,12.98.54,15.78,2.01l1,.57Z"/>
        <path class="cls-2" d="m70.9,51.59c-.42.74-1.2,1.17-2.01,1.17-.39,0-.78-.1-1.14-.3-.2-.11-.98-.57-2.19-1.3-.6-.37-1.3-.81-2.1-1.32.14-1.01.03-2.52-1.25-4.14-2.24-2.83-10.13-6.12-16.56-16.42.15.17.3.34.46.51,6.64,7.33,16.16,14,22.13,17.62.63.39,1.23.74,1.78,1.05,1.11.63,1.5,2.04.86,3.14Z"/>
      </g>
    </g>
    <g>
      <g>
        <path class="cls-4" d="m38.81,85.47c.84,4.14,2.53,6.77,5.03,7.85,4.32,1.86,10.66-1.08,12.74-2.37.75-.47,1.7-.47,2.45,0,2.08,1.29,8.42,4.23,12.74,2.37,2.49-1.08,4.18-3.71,5.02-7.85,1.03-5.08-2.11-10.8-6.89-16.2,0,0,0,0,0,0-.15-.17-.3-.34-.46-.51-6.64-7.33-16.16-14-22.13-17.62-.63-.39-1.23-.74-1.78-1.05-1.11-.63-1.5-2.04-.86-3.14.42-.74,1.2-1.17,2.01-1.17.39,0,.78.1,1.14.3.2.11.98.57,2.19,1.3.6.37,1.3.81,2.1,1.32,9.74,6.25,32.3,22.56,29.22,37.69-.28,1.37-.63,2.61-1.08,3.75-1.4,3.63-3.63,6.12-6.65,7.41-5.93,2.55-12.98-.54-15.78-2.01-2.8,1.48-9.85,4.56-15.78,2.01-3.96-1.7-6.56-5.46-7.73-11.16-1.8-8.85,3.99-17.93,14.13-26.27.02-.02.04-.03.07-.05.99-.75,2.39-.6,3.18.37.81.99.67,2.43-.32,3.25-.19.15-.37.31-.56.47h0c-5.94,5.03-13.74,12.67-11.98,21.31Z"/>
        <path class="cls-2" d="m50.29,90.84c3.23,2.54,6.37,4.07,6.5,4.14.63.3,1.37.3,2,0,.1-.05,1.77-.85,3.91-2.27.71-.47,1.47-1,2.25-1.6.11-.09.23-.18.34-.27,4.61-3.63,7.05-7.45,7.24-11.34.19-3.79-1.18-7.26-3.95-10.03-2.98-2.96-6.88-4.44-10.79-4.44s-7.81,1.48-10.78,4.44c-2.78,2.76-4.14,6.23-3.96,10.03.2,3.9,2.63,7.71,7.24,11.34Zm-.03-18.1c4.16-4.14,10.91-4.14,15.07,0,1.07,1.07,1.81,2.22,2.21,3.49.31.94.44,1.96.39,3.04-.23,4.68-6.67,9.14-10.14,11.03-3.46-1.9-9.9-6.35-10.14-11.03-.12-2.53.72-4.66,2.6-6.53Z"/>
        <path class="cls-1" d="m67.93,79.27c.06-1.08-.08-2.1-.39-3.04.94,1.56,1.51,3.36.9,5.09-1.63,4.61-3.56,4.08-4.34,7.13-.34,1.32.17,2.15.84,2.66-.78.6-1.54,1.13-2.25,1.6-.98-.34-4.91-2.41-4.91-2.41,3.46-1.9,9.9-6.35,10.14-11.03Z"/>
        <path class="cls-2" d="m56.8,94.98l.94-2.54,4.96.28s6.76,5.33,15.3-.37c.88-.59,1.61-1.33,2.22-2.2-1.4,3.63-3.63,6.12-6.65,7.41-5.93,2.55-12.98-.54-15.78-2.01l-1-.57Z"/>
        <path class="cls-2" d="m44.65,46.94c.42-.74,1.2-1.17,2.01-1.17.39,0,.78.1,1.14.3.2.11.98.57,2.19,1.3.6.37,1.3.81,2.1,1.32-.14,1.01-.03,2.52,1.25,4.14,2.24,2.83,10.13,6.12,16.56,16.42-.15-.17-.3-.34-.46-.51-6.64-7.33-16.16-14-22.13-17.62-.63-.39-1.23-.74-1.78-1.05-1.11-.63-1.5-2.04-.86-3.14Z"/>
      </g>
      <g>
        <path class="cls-4" d="m38.81,85.47c.84,4.14,2.53,6.77,5.03,7.85,4.32,1.86,10.66-1.08,12.74-2.37.75-.47,1.7-.47,2.45,0,2.08,1.29,8.42,4.23,12.74,2.37,2.49-1.08,4.18-3.71,5.02-7.85,1.03-5.08-2.11-10.8-6.89-16.2,0,0,0,0,0,0-.15-.17-.3-.34-.46-.51-6.64-7.33-16.16-14-22.13-17.62-.63-.39-1.23-.74-1.78-1.05-1.11-.63-1.5-2.04-.86-3.14.42-.74,1.2-1.17,2.01-1.17.39,0,.78.1,1.14.3.2.11.98.57,2.19,1.3.6.37,1.3.81,2.1,1.32,9.74,6.25,32.3,22.56,29.22,37.69-.28,1.37-.63,2.61-1.08,3.75-1.4,3.63-3.63,6.12-6.65,7.41-5.93,2.55-12.98-.54-15.78-2.01-2.8,1.48-9.85,4.56-15.78,2.01-3.96-1.7-6.56-5.46-7.73-11.16-1.8-8.85,3.99-17.93,14.13-26.27.02-.02.04-.03.07-.05.99-.75,2.39-.6,3.18.37.81.99.67,2.43-.32,3.25-.19.15-.37.31-.56.47h0c-5.94,5.03-13.74,12.67-11.98,21.31Z"/>
        <path class="cls-2" d="m50.29,90.84c3.23,2.54,6.37,4.07,6.5,4.14.63.3,1.37.3,2,0,.1-.05,1.77-.85,3.91-2.27.71-.47,1.47-1,2.25-1.6.11-.09.23-.18.34-.27,4.61-3.63,7.05-7.45,7.24-11.34.19-3.79-1.18-7.26-3.95-10.03-2.98-2.96-6.88-4.44-10.79-4.44s-7.81,1.48-10.78,4.44c-2.78,2.76-4.14,6.23-3.96,10.03.2,3.9,2.63,7.71,7.24,11.34Zm-.03-18.1c4.16-4.14,10.91-4.14,15.07,0,1.07,1.07,1.81,2.22,2.21,3.49.31.94.44,1.96.39,3.04-.23,4.68-6.67,9.14-10.14,11.03-3.46-1.9-9.9-6.35-10.14-11.03-.12-2.53.72-4.66,2.6-6.53Z"/>
        <path class="cls-1" d="m67.93,79.27c.06-1.08-.08-2.1-.39-3.04.94,1.56,1.51,3.36.9,5.09-1.63,4.61-3.56,4.08-4.34,7.13-.34,1.32.17,2.15.84,2.66-.78.6-1.54,1.13-2.25,1.6-.98-.34-4.91-2.41-4.91-2.41,3.46-1.9,9.9-6.35,10.14-11.03Z"/>
        <path class="cls-2" d="m56.8,94.98l.94-2.54,4.96.28s6.76,5.33,15.3-.37c.88-.59,1.61-1.33,2.22-2.2-1.4,3.63-3.63,6.12-6.65,7.41-5.93,2.55-12.98-.54-15.78-2.01l-1-.57Z"/>
        <path class="cls-2" d="m44.65,46.94c.42-.74,1.2-1.17,2.01-1.17.39,0,.78.1,1.14.3.2.11.98.57,2.19,1.3.6.37,1.3.81,2.1,1.32-.14,1.01-.03,2.52,1.25,4.14,2.24,2.83,10.13,6.12,16.56,16.42-.15-.17-.3-.34-.46-.51-6.64-7.33-16.16-14-22.13-17.62-.63-.39-1.23-.74-1.78-1.05-1.11-.63-1.5-2.04-.86-3.14Z"/>
      </g>
    </g>
    <g>
      <path class="cls-4" d="m13.06,29.38c-4.14.84-6.77,2.53-7.85,5.03-1.86,4.32,1.08,10.66,2.37,12.74.47.75.47,1.7,0,2.45-1.29,2.08-4.23,8.42-2.37,12.74,1.08,2.49,3.71,4.18,7.85,5.02,5.08,1.03,10.8-2.11,16.2-6.89,0,0,0,0,0,0,.17-.15.34-.3.51-.46,7.33-6.64,14-16.16,17.62-22.13.39-.63.74-1.23,1.05-1.78.63-1.11,2.04-1.5,3.14-.86.74.42,1.17,1.2,1.17,2.01,0,.39-.1.78-.3,1.14-.11.2-.57.98-1.3,2.19-.37.6-.81,1.3-1.32,2.1-6.25,9.74-22.56,32.3-37.69,29.22-1.37-.28-2.61-.63-3.75-1.08-3.63-1.4-6.12-3.63-7.41-6.65-2.55-5.93.54-12.98,2.01-15.78-1.48-2.8-4.56-9.85-2.01-15.78,1.7-3.96,5.46-6.56,11.16-7.73,8.85-1.8,17.93,3.99,26.27,14.13.02.02.03.04.05.07.75.99.6,2.39-.37,3.18-.99.81-2.43.67-3.25-.32-.15-.19-.31-.37-.47-.56h0c-5.03-5.95-12.67-13.75-21.31-11.99Z"/>
      <path class="cls-2" d="m7.69,40.86c-2.54,3.23-4.08,6.37-4.14,6.5-.3.63-.3,1.37,0,2,.05.1.86,1.77,2.27,3.91.47.71,1,1.47,1.6,2.25.09.11.18.23.27.34,3.63,4.61,7.45,7.05,11.34,7.24,3.79.19,7.26-1.18,10.03-3.95,2.96-2.98,4.44-6.88,4.44-10.79s-1.48-7.81-4.44-10.78c-2.76-2.78-6.23-4.14-10.03-3.96-3.9.2-7.71,2.63-11.34,7.24Zm18.1-.03c4.14,4.16,4.14,10.91,0,15.07-1.07,1.07-2.22,1.81-3.49,2.21-.94.31-1.96.44-3.04.39-4.68-.23-9.14-6.67-11.03-10.14,1.9-3.46,6.35-9.9,11.03-10.14,2.53-.12,4.66.72,6.53,2.6Z"/>
      <path class="cls-1" d="m19.26,58.5c1.08.06,2.1-.08,3.04-.39-1.57.94-3.36,1.51-5.09.9-4.61-1.63-4.08-3.56-7.13-4.34-1.32-.34-2.15.17-2.66.84-.6-.78-1.13-1.54-1.6-2.25.34-.98,2.41-4.91,2.41-4.91,1.9,3.46,6.35,9.9,11.03,10.14Z"/>
      <path class="cls-2" d="m3.55,47.37l2.54.94-.28,4.96s-5.33,6.76.37,15.3c.59.88,1.33,1.61,2.2,2.22-3.63-1.4-6.12-3.63-7.41-6.65-2.55-5.93.54-12.98,2.01-15.78l.57-1Z"/>
      <path class="cls-2" d="m51.59,35.22c.74.42,1.17,1.2,1.17,2.01,0,.39-.1.78-.3,1.14-.11.2-.57.98-1.3,2.19-.37.6-.81,1.3-1.32,2.1-1.01-.14-2.52-.03-4.14,1.25-2.83,2.24-6.12,10.13-16.42,16.56.17-.15.34-.3.51-.46,7.33-6.64,14-16.16,17.62-22.13.39-.63.74-1.23,1.05-1.78.63-1.11,2.04-1.5,3.14-.86Z"/>
    </g>
  </g>
  <g>
    <g>
      <g>
        <path class="cls-4" d="m98.12,5.45s-13.18,1.41-10.73,15.11c13.74-2.2,10.73-15.11,10.73-15.11Z"/>
        <line class="cls-3" x1="88.02" y1="19.66" x2="97.49" y2="6.33"/>
      </g>
      <g>
        <path class="cls-4" d="m15.42,5.45s13.18,1.41,10.73,15.11c-13.74-2.2-10.73-15.11-10.73-15.11Z"/>
        <line class="cls-3" x1="25.52" y1="19.66" x2="16.05" y2="6.33"/>
      </g>
    </g>
    <g>
      <g>
        <path class="cls-4" d="m98.12,93.08s-13.18-1.4-10.73-15.11c13.74,2.2,10.73,15.11,10.73,15.11Z"/>
        <line class="cls-3" x1="88.02" y1="78.87" x2="97.49" y2="92.2"/>
      </g>
      <g>
        <path class="cls-4" d="m15.42,93.08s13.18-1.4,10.73-15.11c-13.74,2.2-10.73,15.11-10.73,15.11Z"/>
        <line class="cls-3" x1="25.52" y1="78.87" x2="16.05" y2="92.2"/>
      </g>
    </g>
  </g>
</svg>